Coordinates
version=1
nRows=27
nColumns=12
inDegrees=yes

Units are S.I. units (second, meters, Newtons, ...)
Angles are in degrees

endheader
time	SC_y	SC_z	SC_x	AC_y	AC_z	AC_x	GH_y	GH_z	GH_yy	EL_x	PS_y
       0.0              -57.28          19.52           46.9          65.72         -1.636          7.481          77.03          50.41         -126.5          65.55          107.3
  0.003338              -57.28          19.52           46.9          65.72         -1.635          7.478          77.01          50.41         -126.5          65.54          107.3
  0.006675              -57.28          19.52          46.91          65.71         -1.635          7.475          76.99           50.4         -126.4          65.53          107.3
   0.01001              -57.28          19.52          46.91          65.71         -1.634          7.472          76.97           50.4         -126.4          65.52          107.2
   0.01335              -57.28          19.52          46.91           65.7         -1.633          7.468          76.94           50.4         -126.3          65.52          107.2
   0.01669              -57.28          19.53          46.91           65.7         -1.632          7.464          76.91          50.39         -126.3           65.5          107.2
   0.02003              -57.28          19.53          46.91          65.69         -1.631           7.46          76.88          50.39         -126.2          65.49          107.2
   0.02336              -57.28          19.53          46.92          65.69          -1.63          7.455          76.85          50.38         -126.1          65.48          107.2
    0.0267              -57.27          19.54          46.92          65.68         -1.629          7.451          76.82          50.38         -126.1          65.47          107.1
   0.03004              -57.27          19.54          46.92          65.67         -1.628          7.446          76.78          50.37         -126.0          65.46          107.1
   0.03338              -57.27          19.54          46.93          65.67         -1.627           7.44          76.74          50.37         -125.9          65.44          107.1
   0.03671              -57.27          19.55          46.93          65.66         -1.625          7.434           76.7          50.36         -125.8          65.42          107.1
   0.04005              -57.27          19.55          46.94          65.65         -1.624          7.428          76.66          50.36         -125.7          65.41          107.0
   0.04339              -57.27          19.56          46.94          65.64         -1.622          7.421          76.61          50.35         -125.6          65.39          107.0
   0.04673              -57.27          19.56          46.95          65.63         -1.621          7.413          76.55          50.34         -125.5          65.37          107.0
   0.05006              -57.27          19.57          46.95          65.62         -1.619          7.405           76.5          50.34         -125.4          65.35          106.9
    0.0534              -57.26          19.58          46.96          65.61         -1.617          7.396          76.43          50.33         -125.3          65.32          106.9
   0.05674              -57.26          19.58          46.96           65.6         -1.615          7.387          76.37          50.32         -125.1           65.3          106.8
   0.06008              -57.26          19.59          46.97          65.58         -1.612          7.376          76.29          50.31         -125.0          65.27          106.8
   0.06341              -57.26           19.6          46.98          65.57          -1.61          7.365          76.21           50.3         -124.8          65.24          106.7
   0.06675              -57.25          19.61          46.99          65.55         -1.607          7.352          76.12          50.29         -124.6          65.21          106.7
   0.07009              -57.25          19.62          46.99          65.53         -1.603          7.339          76.02          50.27         -124.4          65.17          106.6
   0.07343              -57.25          19.63           47.0          65.51           -1.6          7.323          75.92          50.26         -124.2          65.13          106.5
   0.07676              -57.25          19.64          47.02          65.49         -1.596          7.306           75.8          50.24         -124.0          65.08          106.4
    0.0801              -57.24          19.65          47.03          65.47         -1.592          7.288          75.66          50.22         -123.7          65.03          106.4
   0.08344              -57.24          19.67          47.04          65.44         -1.587          7.267          75.52           50.2         -123.4          64.98          106.3
   0.08678              -57.23          19.68          47.06          65.41         -1.582          7.243          75.35          50.18         -123.0          64.91          106.1
